# xmcd
#
# Track frame offsets:
#	182
#	13385
#	25742
#	38557
#	51900
#	60392
#	69847
#	83900
#	96857
#	107292
#	119400
#	132685
#	147047
#	160090
#	171825
#	184730
#	196217
#	208932
#
# Disc length: 2926 seconds
#
# Revision: 0
# Processed by: cddbd v1.5.2PL0 Copyright (c) Steve Scherf et al.
# Submitted via: dBpowerAMP V4.0
#
DISCID=f50b6c12
DTITLE=André Verchuren - Les increvables
DYEAR=1900
DGENRE=Accordéon
TTITLE0=Reine de Musette
TTITLE1=Aubade d'oiseaux
TTITLE2=El relicario
TTITLE3=Paso oriental
TTITLE4=Brise napolitaine
TTITLE5=Les triolets
TTITLE6=Perles de crital
TTITLE7=Retour des hirondelles
TTITLE8=Rendez-vous au musette
TTITLE9=Coplas
TTITLE10=Les fiancés d'auvergne
TTITLE11=D'la valse dans ma musette
TTITLE12=Si tu m'écrivais
TTITLE13=Quand tu reviendras
TTITLE14=Le roi de l'arêne
TTITLE15=Couleur d'amour
TTITLE16=Regarde-moi dans les yeux
TTITLE17=Samba des sifflets
EXTD=Accordéon
EXTT0=
EXTT1=
EXTT2=
EXTT3=
EXTT4=
EXTT5=
EXTT6=
EXTT7=
EXTT8=
EXTT9=
EXTT10=
EXTT11=
EXTT12=
EXTT13=
EXTT14=
EXTT15=
EXTT16=
EXTT17=
PLAYORDER=
